<svg xmlns="http://www.w3.org/2000/svg" width="1200" height="760" viewBox="0 0 1200 760" role="img" aria-label="Modular container construction steel frame diagram">
  <defs>
    <linearGradient id="bg" x1="0" y1="0" x2="1" y2="1">
      <stop offset="0" stop-color="#071017"/>
      <stop offset=".6" stop-color="#111b22"/>
      <stop offset="1" stop-color="#020406"/>
    </linearGradient>
    <linearGradient id="redGlow" x1="0" y1="0" x2="1" y2="0">
      <stop offset="0" stop-color="#ff3232" stop-opacity=".12"/>
      <stop offset=".55" stop-color="#ff3232" stop-opacity=".72"/>
      <stop offset="1" stop-color="#ff3232" stop-opacity=".08"/>
    </linearGradient>
    <filter id="glow" x="-60%" y="-60%" width="220%" height="220%">
      <feGaussianBlur stdDeviation="8" result="blur"/>
      <feMerge>
        <feMergeNode in="blur"/>
        <feMergeNode in="SourceGraphic"/>
      </feMerge>
    </filter>
    <pattern id="blueprint" width="48" height="48" patternUnits="userSpaceOnUse">
      <path d="M48 0H0v48" fill="none" stroke="#d9edf8" stroke-opacity=".075" stroke-width="1"/>
    </pattern>
  </defs>
  <rect width="1200" height="760" fill="url(#bg)"/>
  <rect width="1200" height="760" fill="url(#blueprint)"/>
  <g transform="translate(168 170)">
    <path d="M110 70h700l132 92v248H236L110 320z" fill="#0a0f13" stroke="#7f929d" stroke-opacity=".5" stroke-width="3"/>
    <path d="M236 162h706M236 410V162M942 410V162M110 70l126 92M810 70l132 92M110 320l126 90" fill="none" stroke="#dbeaf0" stroke-opacity=".28" stroke-width="3"/>
    <g stroke="#a9bbc4" stroke-opacity=".42" stroke-width="2">
      <path d="M293 162v248M350 162v248M407 162v248M464 162v248M521 162v248M578 162v248M635 162v248M692 162v248M749 162v248M806 162v248M863 162v248"/>
      <path d="M236 210h706M236 258h706M236 306h706M236 354h706"/>
    </g>
    <g filter="url(#glow)">
      <path d="M236 162h706v248H236z" fill="url(#redGlow)" opacity=".18"/>
      <path d="M236 162h706M236 410h706M236 162v248M942 162v248" fill="none" stroke="#ff3131" stroke-width="4" stroke-opacity=".78"/>
      <path d="M236 162l706 248M942 162L236 410" stroke="#ff3131" stroke-width="3" stroke-opacity=".42"/>
      <rect x="704" y="220" width="116" height="144" fill="none" stroke="#ff3131" stroke-width="4" stroke-opacity=".74"/>
      <rect x="328" y="214" width="182" height="72" fill="none" stroke="#ff3131" stroke-width="3" stroke-opacity=".5"/>
    </g>
  </g>
  <g fill="#dce8ed" fill-opacity=".7" font-family="Inter, Arial, sans-serif" font-size="20" font-weight="800">
    <text x="78" y="122">STEEL SHELL</text>
    <text x="78" y="154" fill-opacity=".44" font-size="14">reinforced openings + insulated core</text>
  </g>
  <rect width="1200" height="760" fill="#020406" opacity=".18"/>
</svg>
